<svg xmlns="http://www.w3.org/2000/svg" xmlns:xlink="http://www.w3.org/1999/xlink" width="375" viewBox="0 0 375 375" height="375" version="1.0"><defs><clipPath id="a"><path d="M 246 282 L 289 282 L 289 309.203125 L 246 309.203125 Z M 246 282"/></clipPath><clipPath id="b"><path d="M 192 65.453125 L 235 65.453125 L 235 93 L 192 93 Z M 192 65.453125"/></clipPath><clipPath id="c"><path d="M 0 65.453125 L 319 65.453125 L 319 309.203125 L 0 309.203125 Z M 0 65.453125"/></clipPath><clipPath id="d"><path d="M 176.511719 168.671875 C 183.78125 171.792969 188.875 179.007812 188.875 187.40625 C 188.875 195.804688 183.78125 203.023438 176.511719 206.144531 L 123.648438 236.625 L 71.484375 266.695312 C 67.988281 269.511719 63.53125 271.199219 58.695312 271.199219 C 47.425781 271.199219 38.285156 262.070312 38.285156 250.820312 L 38.285156 123.839844 C 38.285156 112.585938 47.425781 103.460938 58.695312 103.460938 C 63.828125 103.460938 68.527344 105.359375 72.117188 108.488281 L 123.648438 138.199219 L 176.519531 168.679688 Z M 159.273438 259.960938 C 161.320312 257.5 164.214844 255.761719 167.507812 255.214844 C 169.78125 254.867188 170.640625 255.03125 172.960938 255.03125 L 278.894531 255.03125 C 286.351562 255.03125 292.449219 248.941406 292.449219 241.492188 C 292.449219 234.042969 286.351562 227.953125 278.894531 227.953125 L 233.109375 227.953125 C 225.597656 227.953125 219.550781 221.8125 219.550781 214.414062 C 219.550781 206.945312 225.679688 200.875 233.109375 200.875 L 304.816406 200.875 C 312.273438 200.875 318.375 194.785156 318.375 187.335938 C 318.375 179.886719 312.273438 173.796875 304.816406 173.796875 L 233.109375 173.796875 C 225.671875 173.796875 219.550781 167.730469 219.550781 160.257812 L 219.597656 159.105469 C 219.003906 157.921875 222.328125 146.71875 233.109375 146.71875 L 282.496094 146.71875 C 289.957031 146.71875 296.054688 140.628906 296.054688 133.179688 C 296.054688 125.730469 289.949219 119.640625 282.496094 119.640625 L 172.96875 119.640625 C 170.367188 119.640625 169.828125 119.753906 167.105469 119.382812 C 164.132812 118.789062 161.5 117.226562 159.5625 115.03125 C 157.457031 112.648438 156.171875 109.511719 156.171875 106.09375 C 156.171875 98.644531 162.269531 92.554688 169.730469 92.554688 C 177.1875 92.554688 183.289062 86.464844 183.289062 79.015625 C 183.289062 71.566406 177.179688 65.476562 169.730469 65.476562 L 58.703125 65.476562 C 26.429688 65.476562 0.234375 91.636719 0.234375 123.863281 L 0.234375 250.839844 C 0.234375 283.066406 26.429688 309.226562 58.703125 309.226562 L 222.972656 309.226562 C 230.433594 309.226562 236.53125 303.136719 236.53125 295.6875 C 236.53125 288.238281 230.425781 282.148438 222.972656 282.148438 L 169.730469 282.148438 C 158.339844 282.148438 151.980469 268.800781 159.28125 259.992188 Z M 159.273438 259.960938" clip-rule="evenodd"/></clipPath><linearGradient x1="60.575" gradientTransform="matrix(.7604 0 0 .75935 .22 65.455)" y1="364.469" x2="354.904" gradientUnits="userSpaceOnUse" y2="-45.55" xlink:type="simple" xlink:actuate="onLoad" id="e" xlink:show="other"><stop stop-color="#3D2B2B" offset="0"/><stop stop-color="#3C2B2B" offset=".004"/><stop stop-color="#3C2C2C" offset=".008"/><stop stop-color="#3C2D2D" offset=".012"/><stop stop-color="#3C2D2D" offset=".016"/><stop stop-color="#3C2E2E" offset=".02"/><stop stop-color="#3C2E2E" offset=".023"/><stop stop-color="#3B2F2F" offset=".027"/><stop stop-color="#3B2F2F" offset=".031"/><stop stop-color="#3B3030" offset=".035"/><stop stop-color="#3B3131" offset=".039"/><stop stop-color="#3B3131" offset=".043"/><stop stop-color="#3B3232" offset=".047"/><stop stop-color="#3B3232" offset=".051"/><stop stop-color="#3A3333" offset=".055"/><stop stop-color="#3A3333" offset=".059"/><stop stop-color="#3A3434" offset=".063"/><stop stop-color="#3A3434" offset=".066"/><stop stop-color="#3A3535" offset=".07"/><stop stop-color="#3A3636" offset=".074"/><stop stop-color="#393636" offset=".078"/><stop stop-color="#393737" offset=".082"/><stop stop-color="#393737" offset=".086"/><stop stop-color="#393838" offset=".09"/><stop stop-color="#393838" offset=".094"/><stop stop-color="#393939" offset=".098"/><stop stop-color="#383A3A" offset=".102"/><stop stop-color="#383A3A" offset=".105"/><stop stop-color="#383B3B" offset=".109"/><stop stop-color="#383B3B" offset=".113"/><stop stop-color="#383C3C" offset=".117"/><stop stop-color="#383C3C" offset=".121"/><stop stop-color="#373D3D" offset=".125"/><stop stop-color="#373E3E" offset=".129"/><stop stop-color="#373E3E" offset=".133"/><stop stop-color="#373F3F" offset=".137"/><stop stop-color="#373F3F" offset=".141"/><stop stop-color="#374040" offset=".145"/><stop stop-color="#374040" offset=".148"/><stop stop-color="#364141" offset=".152"/><stop stop-color="#364141" offset=".156"/><stop stop-color="#364242" offset=".16"/><stop stop-color="#364343" offset=".164"/><stop stop-color="#364343" offset=".168"/><stop stop-color="#364444" offset=".172"/><stop stop-color="#354444" offset=".176"/><stop stop-color="#354545" offset=".18"/><stop stop-color="#354545" offset=".184"/><stop stop-color="#354646" offset=".188"/><stop stop-color="#354747" offset=".191"/><stop stop-color="#354747" offset=".195"/><stop stop-color="#344848" offset=".199"/><stop stop-color="#344848" offset=".203"/><stop stop-color="#344949" offset=".207"/><stop stop-color="#344949" offset=".211"/><stop stop-color="#344A4A" offset=".215"/><stop stop-color="#344A4A" offset=".219"/><stop stop-color="#334B4B" offset=".223"/><stop stop-color="#334C4C" offset=".227"/><stop stop-color="#334C4C" offset=".23"/><stop stop-color="#334D4D" offset=".234"/><stop stop-color="#334D4D" offset=".238"/><stop stop-color="#334E4E" offset=".242"/><stop stop-color="#324E4E" offset=".246"/><stop stop-color="#324F4F" offset=".25"/><stop stop-color="#325050" offset=".254"/><stop stop-color="#325050" offset=".258"/><stop stop-color="#325151" offset=".262"/><stop stop-color="#325151" offset=".266"/><stop stop-color="#325252" offset=".27"/><stop stop-color="#315252" offset=".273"/><stop stop-color="#315353" offset=".277"/><stop stop-color="#315353" offset=".281"/><stop stop-color="#315454" offset=".285"/><stop stop-color="#315555" offset=".289"/><stop stop-color="#315555" offset=".293"/><stop stop-color="#305656" offset=".297"/><stop stop-color="#305656" offset=".301"/><stop stop-color="#305757" offset=".305"/><stop stop-color="#305757" offset=".309"/><stop stop-color="#305858" offset=".313"/><stop stop-color="#305959" offset=".316"/><stop stop-color="#2F5959" offset=".32"/><stop stop-color="#2F5A5A" offset=".324"/><stop stop-color="#2F5A5A" offset=".328"/><stop stop-color="#2F5B5B" offset=".332"/><stop stop-color="#2F5B5B" offset=".336"/><stop stop-color="#2F5C5C" offset=".34"/><stop stop-color="#2E5C5C" offset=".344"/><stop stop-color="#2E5D5D" offset=".348"/><stop stop-color="#2E5E5E" offset=".352"/><stop stop-color="#2E5E5E" offset=".355"/><stop stop-color="#2E5F5F" offset=".359"/><stop stop-color="#2E5F5F" offset=".363"/><stop stop-color="#2E6060" offset=".367"/><stop stop-color="#2D6060" offset=".371"/><stop stop-color="#2D6161" offset=".375"/><stop stop-color="#2D6262" offset=".379"/><stop stop-color="#2D6262" offset=".383"/><stop stop-color="#2D6363" offset=".387"/><stop stop-color="#2D6363" offset=".391"/><stop stop-color="#2C6464" offset=".395"/><stop stop-color="#2C6464" offset=".398"/><stop stop-color="#2C6565" offset=".402"/><stop stop-color="#2C6565" offset=".406"/><stop stop-color="#2C6666" offset=".41"/><stop stop-color="#2C6767" offset=".414"/><stop stop-color="#2B6767" offset=".418"/><stop stop-color="#2B6868" offset=".422"/><stop stop-color="#2B6868" offset=".426"/><stop stop-color="#2B6969" offset=".43"/><stop stop-color="#2B6969" offset=".434"/><stop stop-color="#2B6A6A" offset=".438"/><stop stop-color="#2A6B6B" offset=".441"/><stop stop-color="#2A6B6B" offset=".445"/><stop stop-color="#2A6C6C" offset=".449"/><stop stop-color="#2A6C6C" offset=".453"/><stop stop-color="#2A6D6D" offset=".457"/><stop stop-color="#2A6D6D" offset=".461"/><stop stop-color="#296E6E" offset=".465"/><stop stop-color="#296E6E" offset=".469"/><stop stop-color="#296F6F" offset=".473"/><stop stop-color="#297070" offset=".477"/><stop stop-color="#297070" offset=".48"/><stop stop-color="#297171" offset=".484"/><stop stop-color="#297171" offset=".488"/><stop stop-color="#287272" offset=".492"/><stop stop-color="#287272" offset=".496"/><stop stop-color="#287373" offset=".5"/><stop stop-color="#287474" offset=".504"/><stop stop-color="#287474" offset=".508"/><stop stop-color="#287575" offset=".512"/><stop stop-color="#277575" offset=".516"/><stop stop-color="#277676" offset=".52"/><stop stop-color="#277676" offset=".523"/><stop stop-color="#277777" offset=".527"/><stop stop-color="#277777" offset=".531"/><stop stop-color="#277878" offset=".535"/><stop stop-color="#267979" offset=".539"/><stop stop-color="#267979" offset=".543"/><stop stop-color="#267A7A" offset=".547"/><stop stop-color="#267A7A" offset=".551"/><stop stop-color="#267B7B" offset=".555"/><stop stop-color="#267B7B" offset=".559"/><stop stop-color="#257C7C" offset=".563"/><stop stop-color="#257D7D" offset=".566"/><stop stop-color="#257D7D" offset=".57"/><stop stop-color="#257E7E" offset=".574"/><stop stop-color="#257E7E" offset=".578"/><stop stop-color="#257F7F" offset=".582"/><stop stop-color="#247F7F" offset=".586"/><stop stop-color="#248080" offset=".59"/><stop stop-color="#248080" offset=".594"/><stop stop-color="#248181" offset=".598"/><stop stop-color="#248282" offset=".602"/><stop stop-color="#248282" offset=".605"/><stop stop-color="#248383" offset=".609"/><stop stop-color="#238383" offset=".613"/><stop stop-color="#238484" offset=".617"/><stop stop-color="#238484" offset=".621"/><stop stop-color="#238585" offset=".625"/><stop stop-color="#238686" offset=".629"/><stop stop-color="#238686" offset=".633"/><stop stop-color="#228787" offset=".637"/><stop stop-color="#228787" offset=".641"/><stop stop-color="#288" offset=".645"/><stop stop-color="#288" offset=".648"/><stop stop-color="#228989" offset=".652"/><stop stop-color="#228989" offset=".656"/><stop stop-color="#218A8A" offset=".66"/><stop stop-color="#218B8B" offset=".664"/><stop stop-color="#218B8B" offset=".668"/><stop stop-color="#218C8C" offset=".672"/><stop stop-color="#218C8C" offset=".676"/><stop stop-color="#218D8D" offset=".68"/><stop stop-color="#208D8D" offset=".684"/><stop stop-color="#208E8E" offset=".688"/><stop stop-color="#208F8F" offset=".691"/><stop stop-color="#208F8F" offset=".695"/><stop stop-color="#209090" offset=".699"/><stop stop-color="#209090" offset=".703"/><stop stop-color="#209191" offset=".707"/><stop stop-color="#1F9191" offset=".711"/><stop stop-color="#1F9292" offset=".715"/><stop stop-color="#1F9292" offset=".719"/><stop stop-color="#1F9393" offset=".723"/><stop stop-color="#1F9494" offset=".727"/><stop stop-color="#1F9494" offset=".73"/><stop stop-color="#1E9595" offset=".734"/><stop stop-color="#1E9595" offset=".738"/><stop stop-color="#1E9696" offset=".742"/><stop stop-color="#1E9696" offset=".746"/><stop stop-color="#1E9797" offset=".75"/><stop stop-color="#1E9898" offset=".754"/><stop stop-color="#1D9898" offset=".758"/><stop stop-color="#1D9999" offset=".762"/><stop stop-color="#1D9999" offset=".766"/><stop stop-color="#1D9A9A" offset=".77"/><stop stop-color="#1D9A9A" offset=".773"/><stop stop-color="#1D9B9B" offset=".777"/><stop stop-color="#1C9B9B" offset=".781"/><stop stop-color="#1C9C9C" offset=".785"/><stop stop-color="#1C9D9D" offset=".789"/><stop stop-color="#1C9D9D" offset=".793"/><stop stop-color="#1C9E9E" offset=".797"/><stop stop-color="#1C9E9E" offset=".801"/><stop stop-color="#1B9F9F" offset=".805"/><stop stop-color="#1B9F9F" offset=".809"/><stop stop-color="#1BA0A0" offset=".813"/><stop stop-color="#1BA1A1" offset=".816"/><stop stop-color="#1BA1A1" offset=".82"/><stop stop-color="#1BA2A2" offset=".824"/><stop stop-color="#1BA2A2" offset=".828"/><stop stop-color="#1AA3A3" offset=".832"/><stop stop-color="#1AA3A3" offset=".836"/><stop stop-color="#1AA4A4" offset=".84"/><stop stop-color="#1AA4A4" offset=".844"/><stop stop-color="#1AA5A5" offset=".848"/><stop stop-color="#1AA6A6" offset=".852"/><stop stop-color="#19A6A6" offset=".855"/><stop stop-color="#19A7A7" offset=".859"/><stop stop-color="#19A7A7" offset=".863"/><stop stop-color="#19A8A8" offset=".867"/><stop stop-color="#19A8A8" offset=".871"/><stop stop-color="#19A9A9" offset=".875"/><stop stop-color="#18AAAA" offset=".879"/><stop stop-color="#18AAAA" offset=".883"/><stop stop-color="#18ABAB" offset=".887"/><stop stop-color="#18ABAB" offset=".891"/><stop stop-color="#18ACAC" offset=".895"/><stop stop-color="#18ACAC" offset=".898"/><stop stop-color="#17ADAD" offset=".902"/><stop stop-color="#17ADAD" offset=".906"/><stop stop-color="#17AEAE" offset=".91"/><stop stop-color="#17AFAF" offset=".914"/><stop stop-color="#17AFAF" offset=".918"/><stop stop-color="#17B0B0" offset=".922"/><stop stop-color="#17B0B0" offset=".926"/><stop stop-color="#16B1B1" offset=".93"/><stop stop-color="#16B1B1" offset=".934"/><stop stop-color="#16B2B2" offset=".938"/><stop stop-color="#16B3B3" offset=".941"/><stop stop-color="#16B3B3" offset=".945"/><stop stop-color="#16B4B4" offset=".949"/><stop stop-color="#15B4B4" offset=".953"/><stop stop-color="#15B5B5" offset=".957"/><stop stop-color="#15B5B5" offset=".961"/><stop stop-color="#15B6B6" offset=".965"/><stop stop-color="#15B6B6" offset=".969"/><stop stop-color="#15B7B7" offset=".973"/><stop stop-color="#14B8B8" offset=".977"/><stop stop-color="#14B8B8" offset=".98"/><stop stop-color="#14B9B9" offset=".984"/><stop stop-color="#14B9B9" offset=".988"/><stop stop-color="#14BABA" offset=".992"/><stop stop-color="#14BABA" offset=".996"/><stop stop-color="#13BBBB" offset="1"/></linearGradient></defs><path fill="#373435" d="M 324.335938 119.617188 C 316.875 119.617188 310.777344 125.707031 310.777344 133.15625 C 310.777344 140.605469 316.882812 146.695312 324.335938 146.695312 L 338.910156 146.695312 C 346.363281 146.695312 352.46875 140.605469 352.46875 133.15625 C 352.46875 125.707031 346.371094 119.617188 338.910156 119.617188 Z M 324.335938 119.617188" fill-rule="evenodd"/><path fill="#373435" d="M 344.035156 173.78125 C 336.578125 173.78125 330.472656 179.871094 330.472656 187.320312 C 330.472656 194.769531 336.578125 200.859375 344.035156 200.859375 L 361.222656 200.859375 C 368.675781 200.859375 374.78125 194.769531 374.78125 187.320312 C 374.78125 179.871094 368.679688 173.78125 361.222656 173.78125 Z M 344.035156 173.78125" fill-rule="evenodd"/><path fill="#373435" d="M 335.308594 227.953125 L 320.738281 227.953125 C 313.277344 227.953125 307.179688 234.042969 307.179688 241.492188 C 307.179688 248.941406 313.277344 255.03125 320.738281 255.03125 L 335.308594 255.03125 C 342.765625 255.03125 348.871094 248.941406 348.871094 241.492188 C 348.871094 234.042969 342.773438 227.953125 335.308594 227.953125 Z M 335.308594 227.953125" fill-rule="evenodd"/><g clip-path="url(#a)"><path fill="#373435" d="M 288.09375 295.65625 C 288.09375 288.207031 281.996094 282.117188 274.535156 282.117188 L 259.640625 282.117188 C 252.179688 282.117188 246.082031 288.207031 246.082031 295.65625 C 246.082031 303.105469 252.1875 309.195312 259.640625 309.195312 L 274.535156 309.195312 C 281.988281 309.195312 288.09375 303.105469 288.09375 295.65625 Z M 288.09375 295.65625" fill-rule="evenodd"/></g><g clip-path="url(#b)"><path fill="#373435" d="M 221.292969 92.53125 C 228.75 92.53125 234.851562 86.441406 234.851562 78.992188 C 234.851562 71.542969 228.75 65.453125 221.292969 65.453125 L 206.394531 65.453125 C 198.9375 65.453125 192.839844 71.542969 192.839844 78.992188 C 192.839844 86.441406 198.945312 92.53125 206.394531 92.53125 Z M 221.292969 92.53125" fill-rule="evenodd"/></g><g clip-path="url(#c)"><g clip-path="url(#d)"><path fill="url(#e)" d="M 0.234375 65.476562 L 0.234375 309.203125 L 318.375 309.203125 L 318.375 65.476562 Z M 0.234375 65.476562"/></g></g></svg>